Coordinates
version=1
nRows=34
nColumns=38
inDegrees=no

Units are S.I. units (second, meters, Newtons, ...)
If the header above contains a line with 'inDegrees', this indicates whether rotational values are in degrees (yes) or radians (no).

endheader
time	pelvis_tilt	pelvis_list	pelvis_rotation	pelvis_tx	pelvis_ty	pelvis_tz	hip_flexion_r	hip_adduction_r	hip_rotation_r	knee_angle_r	ankle_angle_r	subtalar_angle_r	mtp_angle_r	hip_flexion_l	hip_adduction_l	hip_rotation_l	knee_angle_l	ankle_angle_l	subtalar_angle_l	mtp_angle_l	lumbar_extension	lumbar_bending	lumbar_rotation	arm_flex_r	arm_add_r	arm_rot_r	elbow_flex_r	pro_sup_r	wrist_flex_r	wrist_dev_r	arm_flex_l	arm_add_l	arm_rot_l	elbow_flex_l	pro_sup_l	wrist_flex_l	wrist_dev_l
0.46	2.74204	1.29278	-1.30286	0.881601	0.126278	0.942348	-0.401931	0.0435358	-0.0442292	0.56826	0.356804	0	0	0.134646	-0.0875122	-0.220035	0.0846895	0.212169	0	0	-0.518246	0.0687194	0.146424	0.469857	-0.439353	0.218695	1.07424	0.840147	0	0	0.428241	-0.402548	0.24877	1.01058	0.717013	0	0
0.47	2.75303	1.30204	-1.32272	0.881212	0.139373	0.940702	-0.382163	0.0267164	-0.0398782	0.617107	0.347802	0	0	0.137945	-0.0818465	-0.227631	0.0887983	0.171536	0	0	-0.512138	0.0554607	0.147702	0.46991	-0.433921	0.215497	1.07403	0.838679	0	0	0.424079	-0.406912	0.245609	1.01816	0.712288	0	0
0.48	2.77331	1.31517	-1.34739	0.880447	0.151947	0.939565	-0.353281	0.00932338	-0.035515	0.672936	0.328569	0	0	0.154898	-0.076657	-0.244356	0.114275	0.114155	0	0	-0.504198	0.0407401	0.14547	0.468651	-0.42821	0.209488	1.07492	0.840028	0	0	0.422635	-0.411196	0.245188	1.02435	0.702482	0	0
0.49	2.80927	1.32783	-1.38646	0.879567	0.164329	0.939228	-0.32077	-0.0102925	-0.0295259	0.733244	0.2978	0	0	0.175428	-0.0710868	-0.271302	0.154816	0.065335	0	0	-0.498123	0.0236665	0.143232	0.466767	-0.424611	0.202799	1.07764	0.845412	0	0	0.424453	-0.414147	0.247118	1.02693	0.699157	0	0
0.5	2.85237	1.33663	-1.43443	0.87901	0.176803	0.939556	-0.289429	-0.0294879	-0.0188836	0.793994	0.257523	0	0	0.191077	-0.0678096	-0.304391	0.199926	0.0341424	0	0	-0.495279	0.00613306	0.143841	0.46566	-0.42372	0.200073	1.08008	0.853312	0	0	0.427613	-0.416499	0.250626	1.02717	0.699045	0	0
0.51	2.89058	1.34098	-1.48007	0.878893	0.189447	0.94026	-0.261311	-0.044888	-0.00227998	0.852393	0.211309	0	0	0.197269	-0.0671251	-0.33339	0.236765	0.00321722	0	0	-0.49533	-0.00969517	0.147851	0.465428	-0.424635	0.201075	1.08168	0.855866	0	0	0.429649	-0.418831	0.253327	1.02803	0.699158	0	0
0.52	2.92083	1.34311	-1.51797	0.878723	0.202178	0.940985	-0.235312	-0.0558507	0.0177509	0.907812	0.164552	0	0	0.196045	-0.065781	-0.351188	0.25907	-0.0427997	0	0	-0.496218	-0.0223203	0.152248	0.465364	-0.426436	0.204553	1.08344	0.854442	0	0	0.4287	-0.421115	0.253117	1.03201	0.697941	0	0
0.53	2.94437	1.34636	-1.54644	0.877887	0.2149	0.941344	-0.208508	-0.0629888	0.0378026	0.960523	0.123088	0	0	0.194525	-0.0619038	-0.356033	0.272434	-0.0911769	0	0	-0.494721	-0.0305397	0.154034	0.464651	-0.428486	0.207933	1.0861	0.851903	0	0	0.424121	-0.422383	0.24905	1.03935	0.696757	0	0
0.54	2.96338	1.3522	-1.56637	0.876262	0.227441	0.941267	-0.179839	-0.0668481	0.0556738	1.00946	0.090863	0	0	0.197687	-0.0568522	-0.355053	0.288565	-0.108244	0	0	-0.489537	-0.0345644	0.152247	0.463343	-0.429642	0.208602	1.08843	0.850238	0	0	0.417407	-0.422513	0.242744	1.04788	0.699226	0	0
0.55	2.97533	1.35892	-1.57693	0.874352	0.239745	0.941087	-0.152109	-0.0663186	0.0728463	1.05191	0.0677993	0	0	0.204362	-0.0540623	-0.357272	0.31547	-0.0816903	0	0	-0.482772	-0.0355108	0.149276	0.461609	-0.429973	0.206078	1.09029	0.848068	0	0	0.410623	-0.421703	0.236233	1.05621	0.702698	0	0
0.56	2.98337	1.36421	-1.58262	0.872518	0.251858	0.941332	-0.12874	-0.0621012	0.0903857	1.08519	0.0527685	0	0	0.209025	-0.051274	-0.358642	0.343125	-0.0483538	0	0	-0.47735	-0.0353718	0.146827	0.458996	-0.43014	0.201546	1.09206	0.847068	0	0	0.405414	-0.420208	0.231249	1.06293	0.704085	0	0
0.57	2.9866	1.36683	-1.58337	0.870939	0.263916	0.942357	-0.111206	-0.0545899	0.108845	1.10835	0.0485835	0	0	0.208271	-0.0482261	-0.35772	0.365109	-0.0263475	0	0	-0.474903	-0.0345034	0.145751	0.45571	-0.43073	0.196345	1.09387	0.84862	0	0	0.401851	-0.418104	0.227909	1.0676	0.703912	0	0
0.58	2.97779	1.36727	-1.57225	0.8696	0.276019	0.944098	-0.0986909	-0.0429657	0.127737	1.12184	0.05873	0	0	0.202378	-0.0472795	-0.354267	0.381986	-0.00875233	0	0	-0.474732	-0.0312532	0.146453	0.452626	-0.433274	0.194427	1.09573	0.851246	0	0	0.398813	-0.415329	0.225174	1.07078	0.705076	0	0
0.59	2.95498	1.36644	-1.54656	0.868219	0.288128	0.946383	-0.0893367	-0.0284696	0.14381	1.12602	0.0801607	0	0	0.192668	-0.0489202	-0.348676	0.393778	0.00771683	0	0	-0.475681	-0.0243407	0.147527	0.451122	-0.437854	0.197862	1.09635	0.85293	0	0	0.3958	-0.411582	0.221935	1.07175	0.709068	0	0
0.6	2.92603	1.36572	-1.51299	0.866588	0.300053	0.949012	-0.080523	-0.0142874	0.153797	1.12147	0.105937	0	0	0.181403	-0.0517764	-0.342136	0.400672	0.022426	0	0	-0.476567	-0.0149382	0.146903	0.451574	-0.442895	0.205175	1.0947	0.85259	0	0	0.393452	-0.407286	0.218139	1.0703	0.714778	0	0
0.61	2.9005	1.36623	-1.48111	0.864766	0.311754	0.951749	-0.0703366	-0.0032099	0.157165	1.10958	0.131446	0	0	0.170947	-0.0544052	-0.337084	0.40522	0.0358785	0	0	-0.476206	-0.00560898	0.144124	0.452486	-0.446846	0.212837	1.09139	0.850018	0	0	0.391888	-0.403125	0.21424	1.06769	0.719399	0	0
0.62	2.88291	1.36751	-1.45666	0.862944	0.323342	0.954503	-0.0594937	0.0040606	0.155782	1.09172	0.155867	0	0	0.160877	-0.0556627	-0.333794	0.408006	0.0466317	0	0	-0.474971	0.00192121	0.139821	0.452838	-0.448873	0.218772	1.08745	0.845991	0	0	0.390387	-0.39986	0.210396	1.06536	0.723353	0	0
0.63	2.87156	1.36893	-1.43859	0.861165	0.334835	0.957175	-0.0487656	0.0086208	0.151622	1.06904	0.180576	0	0	0.150666	-0.0552986	-0.331539	0.409019	0.0541796	0	0	-0.473487	0.00784996	0.135644	0.451289	-0.44976	0.22072	1.08496	0.843572	0	0	0.389781	-0.397502	0.20857	1.06312	0.726543	0	0
0.64	2.86214	1.37048	-1.4231	0.859491	0.346181	0.959639	-0.0378616	0.0120074	0.145768	1.04276	0.206207	0	0	0.140323	-0.0539059	-0.329358	0.408637	0.0601248	0	0	-0.471785	0.0129444	0.132513	0.447978	-0.449907	0.218565	1.0844	0.841931	0	0	0.39046	-0.395487	0.208439	1.06073	0.728325	0	0
0.65	2.8493	1.37211	-1.40446	0.857936	0.357392	0.961797	-0.026439	0.0157394	0.137913	1.01389	0.230896	0	0	0.129774	-0.0522182	-0.324766	0.40706	0.0670334	0	0	-0.469701	0.0185384	0.1304	0.443454	-0.449899	0.213478	1.08577	0.840965	0	0	0.392388	-0.394136	0.210261	1.05788	0.72977	0	0
0.66	2.83085	1.37378	-1.38032	0.856511	0.368481	0.963627	-0.0139991	0.0205411	0.128778	0.983823	0.253206	0	0	0.11917	-0.0510224	-0.317894	0.404532	0.0751228	0	0	-0.467363	0.0251555	0.128726	0.438897	-0.450243	0.208075	1.08878	0.840534	0	0	0.394808	-0.393849	0.21328	1.05533	0.730901	0	0
0.67	2.80723	1.37503	-1.35088	0.855189	0.379461	0.965215	-0.000687084	0.02639	0.118343	0.953165	0.271115	0	0	0.108122	-0.0505187	-0.30951	0.40104	0.0839171	0	0	-0.465158	0.0329262	0.126548	0.435515	-0.451137	0.20504	1.0924	0.840206	0	0	0.397	-0.394613	0.216836	1.05389	0.730647	0	0
0.68	2.78129	1.37568	-1.31882	0.853922	0.390315	0.966648	0.0135776	0.0326345	0.106579	0.922975	0.283244	0	0	0.0962765	-0.0504551	-0.30029	0.396335	0.092832	0	0	-0.463351	0.0413738	0.123102	0.434119	-0.452106	0.205336	1.09542	0.839681	0	0	0.397886	-0.39683	0.219501	1.05485	0.729416	0	0
0.69	2.7557	1.37577	-1.2868	0.852663	0.401003	0.967986	0.0289411	0.0385034	0.0932733	0.894086	0.290356	0	0	0.0839285	-0.0508622	-0.291507	0.391332	0.101756	0	0	-0.462062	0.0499598	0.118204	0.434694	-0.452517	0.207337	1.09746	0.837858	0	0	0.398225	-0.399801	0.221165	1.057	0.726838	0	0
0.7	2.73299	1.37508	-1.25744	0.851408	0.411511	0.969308	0.0446412	0.0435845	0.078603	0.866035	0.294185	0	0	0.0709039	-0.0516789	-0.284145	0.386453	0.110614	0	0	-0.461592	0.0582861	0.112431	0.436572	-0.452279	0.210227	1.09837	0.834732	0	0	0.398915	-0.403439	0.22308	1.05923	0.724292	0	0
0.71	2.71471	1.37393	-1.23272	0.85021	0.421855	0.970605	0.0608392	0.0475614	0.0631417	0.839732	0.296318	0	0	0.0576525	-0.0525377	-0.278313	0.382169	0.119312	0	0	-0.461711	0.065813	0.106556	0.439002	-0.451251	0.212615	1.09839	0.831336	0	0	0.400706	-0.406985	0.225623	1.06037	0.721646	0	0
0.72	2.70026	1.37254	-1.21262	0.849141	0.432099	0.971828	0.0778883	0.0503947	0.0472037	0.815826	0.297182	0	0	0.0440886	-0.0530795	-0.273099	0.378196	0.127898	0	0	-0.462115	0.0723167	0.101448	0.441587	-0.449334	0.213497	1.09761	0.82936	0	0	0.403343	-0.410069	0.22848	1.06058	0.718899	0	0
0.73	2.69003	1.37101	-1.19777	0.848167	0.442252	0.972941	0.0961337	0.0514334	0.0296946	0.794704	0.296966	0	0	0.0300231	-0.0530544	-0.268627	0.373985	0.136066	0	0	-0.462781	0.0777244	0.0972419	0.444675	-0.447184	0.213706	1.09614	0.829494	0	0	0.40671	-0.412608	0.231716	1.05979	0.71675	0	0
0.74	2.68036	1.36905	-1.18459	0.847293	0.452319	0.9739	0.114954	0.052146	0.0116536	0.775336	0.295393	0	0	0.0156147	-0.0531953	-0.265257	0.369927	0.14422	0	0	-0.463839	0.0828523	0.0942704	0.448595	-0.445537	0.213811	1.09432	0.830713	0	0	0.410392	-0.414188	0.234227	1.05836	0.715391	0	0
0.75	2.66871	1.36673	-1.17038	0.846512	0.462303	0.97466	0.134115	0.0532193	-0.00685067	0.756619	0.2922	0	0	0.00140485	-0.0539018	-0.26243	0.366555	0.15289	0	0	-0.465036	0.0882652	0.0922652	0.453161	-0.444667	0.215082	1.0924	0.832218	0	0	0.413709	-0.41502	0.235343	1.05689	0.714886	0	0
0.76	2.65494	1.36434	-1.15447	0.845813	0.472208	0.975232	0.153442	0.0547145	-0.025463	0.73774	0.288067	0	0	-0.0122383	-0.0551648	-0.259277	0.363979	0.161905	0	0	-0.466093	0.0940659	0.0906764	0.458271	-0.444278	0.217651	1.09002	0.833103	0	0	0.416378	-0.415406	0.235347	1.05567	0.714525	0	0
0.77	2.63933	1.36206	-1.13655	0.845158	0.48203	0.975636	0.172802	0.0565113	-0.0443678	0.718344	0.284267	0	0	-0.0251114	-0.0570039	-0.255382	0.362382	0.170759	0	0	-0.466855	0.100334	0.0891608	0.463447	-0.444214	0.220774	1.08753	0.833079	0	0	0.418804	-0.415217	0.234318	1.05459	0.714029	0	0
0.78	2.62133	1.35963	-1.1154	0.844495	0.491817	0.975929	0.191431	0.0587475	-0.0646936	0.697576	0.280843	0	0	-0.0377251	-0.0595982	-0.251228	0.360656	0.180287	0	0	-0.467426	0.107559	0.0874405	0.468149	-0.44442	0.223524	1.08557	0.832352	0	0	0.42137	-0.414552	0.233166	1.05357	0.713901	0	0
0.79	2.60384	1.35743	-1.09505	0.843909	0.501565	0.97609	0.209655	0.0610082	-0.0846121	0.676108	0.279171	0	0	-0.0506531	-0.0620577	-0.247386	0.357811	0.18991	0	0	-0.467882	0.114399	0.0866387	0.471958	-0.444828	0.224549	1.08461	0.831943	0	0	0.424954	-0.413752	0.233558	1.05215	0.713896	0	0
